<svg width="40" height="40" viewBox="0 0 40 40" fill="none" xmlns="http://www.w3.org/2000/svg">
<path fill-rule="evenodd" clip-rule="evenodd" d="M39.4816 39.847C39.5956 39.8396 39.7091 39.8256 39.8214 39.8049C39.8247 39.7676 39.8283 39.7314 39.8318 39.696C39.8424 39.5884 39.8522 39.4886 39.8525 39.3884C39.8553 37.5915 39.8567 35.7948 39.8567 33.9982C39.8565 32.9889 39.8567 31.9797 39.8569 30.9705C39.8575 27.9444 39.8581 24.9184 39.8469 21.8923C39.8466 21.7828 39.8463 21.6733 39.846 21.5637C39.8432 20.4097 39.8403 19.2518 39.7313 18.1062C39.5261 15.9544 38.9249 13.8872 37.9829 11.9315C36.5733 9.00479 34.5695 6.54258 31.9334 4.59054C30.1779 3.28949 28.2619 2.28284 26.1666 1.61266C23.6456 0.799277 20.9857 0.486945 18.3412 0.693783C15.7888 0.884302 13.2988 1.56418 11.0112 2.69519C6.46898 4.94368 2.96339 8.80675 1.20342 13.5032C0.436587 15.5511 0.0303937 17.713 0.00233651 19.8955C-0.0271956 21.6326 0.174943 23.366 0.603574 25.0513C0.916495 26.281 1.36824 27.4627 1.85712 28.6317C2.03354 29.0527 2.21879 29.4783 2.46485 29.8614C2.8678 30.4932 3.30292 31.1046 3.76854 31.6932C3.79358 31.7246 3.81863 31.7559 3.84368 31.7873C4.44881 32.545 5.05718 33.3067 5.73661 33.9973C7.64524 35.9369 9.89744 37.3962 12.4347 38.4184C14.1627 39.1141 15.9576 39.5809 17.8203 39.7295C18.8979 39.815 19.9824 39.8319 21.0642 39.8419C22.6495 39.8567 24.2351 39.8556 25.8207 39.8544C26.2454 39.8541 26.67 39.8538 27.0947 39.8538C27.9992 39.8538 28.9033 39.8521 29.8076 39.8504C30.7122 39.8487 31.617 39.847 32.5225 39.847C34.8424 39.8494 37.162 39.8494 39.4816 39.847ZM29.959 28.1576C30.8574 27.2477 31.3622 26.0137 31.3622 24.727H31.3599V18.1602C31.3615 17.068 30.9976 16.0075 30.3276 15.1516C30.312 15.1313 30.2998 15.1085 30.2914 15.0841C29.9253 14.0187 28.0379 12.6855 26.4982 11.9899C24.1306 10.92 21.7474 10.9793 21.6722 11.3015C21.6425 11.4285 21.9848 11.5368 22.5161 11.7049C23.2236 11.9288 24.2662 12.2588 25.2117 12.8799C25.2535 12.907 25.2855 12.9471 25.3029 12.9942C25.3203 13.0413 25.3222 13.0928 25.3082 13.1411C25.2942 13.1893 25.2652 13.2317 25.2255 13.2618C25.1857 13.2919 25.1374 13.3082 25.0878 13.3082H15.759C15.7094 13.3081 15.6611 13.2918 15.6214 13.2616C15.5818 13.2314 15.5528 13.1891 15.5389 13.1409C15.525 13.0926 15.5269 13.0412 15.5443 12.9941C15.5617 12.9471 15.5937 12.907 15.6355 12.8799C16.5814 12.257 17.6255 11.9271 18.3333 11.7035C18.8632 11.5361 19.2046 11.4283 19.1749 11.3015C19.0998 10.9793 16.7165 10.92 14.3485 11.9899C12.8084 12.686 10.9205 14.0196 10.5554 15.0855C10.547 15.1098 10.5347 15.1326 10.5191 15.153C9.85042 16.0088 9.48765 17.0688 9.48994 18.1602V24.7275C9.48994 26.0142 9.99465 27.2482 10.8931 28.1581C11.7915 29.0679 13.01 29.579 14.2805 29.579H15.3459C13.9064 27.8815 13.0137 26.0738 13.2643 25.8055C13.342 25.7224 13.5082 25.8758 13.8221 26.1655C14.3604 26.6624 15.3332 27.5602 17.0387 28.3537C18.5274 29.0466 22.4329 29.0076 23.1006 28.6967C24.7588 27.9252 25.7243 27.1103 26.2714 26.6486C26.6154 26.3582 26.794 26.2075 26.8754 26.295C27.1018 26.5379 26.3935 28.0378 25.1925 29.5786H26.5716C27.8421 29.5786 29.0606 29.0674 29.959 28.1576Z" fill="white"/>
<path d="M24.7075 17.7166C24.341 17.7357 23.9878 17.8607 23.6909 18.0764C23.3939 18.292 23.1659 18.5892 23.0343 18.9318C22.9028 19.2744 22.8734 19.6478 22.9497 20.0068C23.026 20.3658 23.2048 20.695 23.4643 20.9545C23.7238 21.214 24.0531 21.3926 24.4121 21.4689C24.7711 21.5451 25.1445 21.5156 25.4871 21.384C25.8297 21.2524 26.1268 21.0242 26.3424 20.7272C26.558 20.4302 26.6829 20.0771 26.7019 19.7106C26.7148 19.4453 26.672 19.1802 26.5763 18.9325C26.4806 18.6847 26.3341 18.4597 26.1463 18.2719C25.9585 18.0841 25.7334 17.9377 25.4856 17.842C25.2378 17.7464 24.9728 17.7037 24.7075 17.7166Z" fill="white"/>
<path d="M15.851 17.7165C15.4845 17.7356 15.1313 17.8605 14.8343 18.0761C14.5373 18.2917 14.3091 18.5888 14.1775 18.9315C14.0459 19.2741 14.0164 19.6475 14.0927 20.0066C14.169 20.3656 14.3477 20.6948 14.6072 20.9543C14.8668 21.2139 15.196 21.3926 15.555 21.4688C15.914 21.5451 16.2875 21.5157 16.6301 21.384C16.9727 21.2524 17.2698 21.0243 17.4855 20.7273C17.7011 20.4302 17.826 20.0771 17.845 19.7105C17.8577 19.4453 17.8149 19.1804 17.7192 18.9327C17.6234 18.685 17.477 18.46 17.2893 18.2723C17.1015 18.0845 16.8766 17.9381 16.6289 17.8424C16.3812 17.7467 16.1162 17.7038 15.851 17.7165Z" fill="white"/>
</svg>
