<svg width="41" height="40" viewBox="0 0 41 40" fill="none" xmlns="http://www.w3.org/2000/svg">
<path d="M40.4645 39.8049C40.3521 39.8256 40.2387 39.8396 40.1246 39.847C37.8051 39.8494 35.4854 39.8494 33.1656 39.847C31.3549 39.847 29.547 39.8538 27.7378 39.8538C25.7274 39.8538 23.7171 39.8607 21.7073 39.8419C20.6255 39.8319 19.541 39.815 18.4634 39.7295C16.6007 39.5809 14.8058 39.1141 13.0778 38.4184C10.5405 37.3962 8.28831 35.9369 6.37967 33.9973C5.67212 33.2782 5.04163 32.4818 4.41161 31.6932C3.94599 31.1046 3.51087 30.4932 3.10792 29.8614C2.86186 29.4783 2.67661 29.0527 2.50018 28.6317C2.0113 27.4627 1.55956 26.281 1.24664 25.0513C0.818009 23.366 0.615871 21.6326 0.645403 19.8955C0.67346 17.713 1.07965 15.5511 1.84648 13.5032C3.60646 8.80675 7.11205 4.94368 11.6543 2.69519C13.9419 1.56418 16.4319 0.884302 18.9843 0.693783C21.6288 0.486945 24.2887 0.799277 26.8097 1.61266C28.9049 2.28284 30.821 3.28949 32.5764 4.59054C35.2126 6.54258 37.2164 9.00479 38.6259 11.9315C39.568 13.8872 40.1692 15.9544 40.3744 18.1062C40.4937 19.3606 40.4858 20.6297 40.49 21.8923C40.5049 25.9276 40.4988 29.9629 40.4998 33.9982C40.4998 35.7948 40.4984 37.5915 40.4956 39.3884C40.4951 39.5215 40.4779 39.654 40.4645 39.8049ZM20.8925 12.1729C19.5159 12.1729 18.1384 12.1454 16.7604 12.1802C15.2283 12.219 13.6999 12.2958 12.1715 12.3927C11.2286 12.4531 10.4393 12.8782 9.93835 13.6796C9.69182 14.0732 9.52653 14.5359 9.41464 14.9884C9.11379 16.2081 9.08687 17.4616 9.05622 18.7083C9.0098 20.5657 9.0228 22.4231 9.22336 24.275C9.28624 24.9119 9.43326 25.538 9.66071 26.1374C10.0103 27.0367 10.6728 27.5935 11.6107 27.7978C12.2141 27.9314 12.8285 28.0116 13.4464 28.0374C15.8119 28.1242 18.1783 28.2202 20.5447 28.2298C22.8197 28.2362 25.0918 28.1421 27.3654 28.0762C28.0151 28.0608 28.6635 28.0117 29.3079 27.929C30.515 27.7677 31.3582 27.1318 31.7602 25.9765C31.8303 25.7749 31.9209 25.5738 31.9459 25.3658C32.0653 24.4615 32.2143 23.5568 32.2607 22.648C32.3601 20.7161 32.3596 18.7814 32.2101 16.8504C32.1465 16.0312 32.0625 15.2138 31.789 14.4275C31.4301 13.393 30.7347 12.7246 29.6487 12.4741C29.3622 12.411 29.0712 12.37 28.7782 12.3516C26.1532 12.1665 23.5235 12.1294 20.8925 12.1729Z" fill="white"/>
<path d="M18.3135 16.8359C18.7072 16.9059 24.1169 19.6703 24.3983 19.9322C24.0454 20.2394 18.7239 22.9439 18.3135 23.013V16.8359Z" fill="white"/>
</svg>
