<svg width="41" height="40" viewBox="0 0 41 40" fill="none" xmlns="http://www.w3.org/2000/svg">
<path d="M40.519 39.8589H38.4397C36.327 39.8589 34.2143 39.8589 32.1016 39.8589C30.25 39.8589 28.4007 39.8492 26.5501 39.8487C24.592 39.8487 22.6335 39.8566 20.6749 39.8571C18.1012 39.8571 15.6094 39.4113 13.2222 38.4451C9.58228 36.973 6.61972 34.6379 4.33453 31.4399C2.59078 28.9979 1.48121 26.2948 0.959985 23.3519C0.584591 21.2214 0.565038 19.0434 0.902123 16.9064C1.24289 14.677 1.96127 12.522 3.02637 10.5341C4.47664 7.8208 6.45184 5.5737 8.93854 3.76777C10.538 2.60551 12.304 1.69183 14.1767 1.05773C16.6074 0.229683 19.1757 -0.118563 21.7391 0.0323232C24.5383 0.179687 27.2729 0.928091 29.757 2.22665C32.2754 3.5394 34.4864 5.37181 36.244 7.60274C38.0015 9.83366 39.2655 12.4123 39.9524 15.1681C40.3126 16.5752 40.4991 18.021 40.5079 19.4734C40.5195 23.0663 40.513 26.6596 40.5144 30.2525C40.5144 33.1517 40.5167 36.0509 40.5213 38.9502L40.519 39.8589ZM32.8048 9.43229C32.6391 9.48229 32.5539 9.50081 32.4743 9.53321C31.7767 9.81931 31.0832 10.1156 30.382 10.3929C29.8084 10.6202 29.2497 10.697 28.8132 10.1151C28.7814 10.0812 28.7453 10.0516 28.7058 10.0272C27.6761 9.2297 26.3972 8.82288 25.0961 8.87889C23.795 8.93491 22.5557 9.45016 21.5984 10.3332C20.2023 11.6076 19.6394 13.252 19.851 15.144C19.8676 15.2926 19.882 15.4422 19.9023 15.6412C18.7655 15.6977 17.717 15.4514 16.6787 15.1903C15.6153 14.9216 14.5866 14.5305 13.6134 14.0246C12.6524 13.5265 11.7178 12.9775 10.8994 12.2678C10.081 11.5581 9.30377 10.7864 8.48536 10.023C8.42611 10.11 8.33816 10.1994 8.29696 10.3068C8.15809 10.6656 8.01922 11.0257 7.91368 11.3952C7.74704 11.9808 7.73593 12.5849 7.7961 13.1858C7.83549 13.5377 7.90094 13.8861 7.99191 14.2283C8.30344 15.4486 9.06954 16.375 10.081 17.2439C9.5741 17.2902 9.20702 17.1865 8.84828 17.0819C8.48953 16.9773 8.14374 16.8305 7.7313 16.6801C7.72895 17.5085 7.91277 18.327 8.26919 19.0748C8.62331 19.8341 9.1487 20.4488 9.77963 20.9812C10.3879 21.496 11.122 21.7928 11.8557 22.1126C11.1683 22.3904 10.467 22.2932 9.71899 22.2835C9.89609 22.8932 10.1937 23.4612 10.5943 23.9537C11.634 25.25 13.0167 25.9018 14.7405 26.0638C14.5822 26.2212 14.5114 26.3212 14.4165 26.3809C13.973 26.6587 13.537 26.9508 13.0718 27.1925C11.2665 28.1332 9.3371 28.5267 7.30543 28.4308C7.19479 28.4257 7.0837 28.4433 6.90826 28.4549C7.01102 28.5517 7.04713 28.6026 7.09759 28.6304C7.40773 28.8021 7.71834 28.9729 8.03311 29.1359C9.7244 30.0085 11.5658 30.5525 13.4597 30.739C15.9825 30.996 18.4433 30.7145 20.8314 29.8308C23.088 28.9975 25.0146 27.6772 26.6366 25.9115C28.2031 24.206 29.3316 22.2376 30.0649 20.0452C30.3889 19.079 30.6551 18.0953 30.7379 17.0745C30.7996 16.323 30.8459 15.5705 30.8768 14.8172C30.8902 14.4885 30.9962 14.2663 31.2601 14.0371C31.8743 13.5029 32.44 12.9117 33.0084 12.327C33.2164 12.1257 33.3728 11.8772 33.4644 11.6025C32.5446 11.8761 31.7128 12.2396 30.7773 12.2294C31.6554 11.4618 32.4446 10.6517 32.8048 9.43229Z" fill="white"/>
</svg>
