<svg width="25" height="31" viewBox="0 0 25 31" fill="none" xmlns="http://www.w3.org/2000/svg">
<g opacity="0.7">
<path d="M12.5 6.78091C8.00871 6.78091 5.0666 9.54671 3.37682 11.8983C1.97151 13.8539 1.97151 16.4453 3.37682 18.401C5.0666 20.7525 8.00871 23.5183 12.5 23.5183C16.9913 23.5183 19.9334 20.7525 21.6232 18.401C23.0285 16.4453 23.0285 13.8539 21.6232 11.8983C19.9334 9.54671 16.9913 6.78091 12.5 6.78091Z" stroke="white" stroke-width="2" stroke-linecap="round" stroke-linejoin="round"/>
<path d="M12.5 19.7989C14.6574 19.7989 16.4062 17.7173 16.4062 15.1496C16.4062 12.5819 14.6574 10.5003 12.5 10.5003C10.3426 10.5003 8.59375 12.5819 8.59375 15.1496C8.59375 17.7173 10.3426 19.7989 12.5 19.7989Z" stroke="white" stroke-width="2" stroke-linecap="round" stroke-linejoin="round"/>
</g>
</svg>
