<svg width="93" height="101" viewBox="0 0 93 101" fill="none" xmlns="http://www.w3.org/2000/svg">
<path fill-rule="evenodd" clip-rule="evenodd" d="M63.8416 0H93.0001L90.7553 8.09262H88.8288V63.801C88.8288 71.4616 83.6023 75.8253 80.9922 78.0532C78.5433 80.5105 75.074 83.2872 71.9067 85.6728V85.7997L71.1312 86.4612C68.8986 88.044 66.4374 89.7375 63.8416 91.4126V0ZM80.7657 10.3205L78.431 8.09262H71.6802V74.5229C72.8209 73.5461 74.2372 72.4486 75.2127 71.4718C80.1106 66.5675 80.7391 67.3763 80.7657 60.453V10.3205Z" fill="#FF0000"/>
<path fill-rule="evenodd" clip-rule="evenodd" d="M20.8404 85.7997V35.4134L18.6853 33.2469L11.7467 40.1887V78.0532C9.14266 75.8253 3.91828 71.4657 3.91828 63.801V8.10285H1.83669L0 0H28.9034V22.9182L24.3464 27.4846L28.9034 32.0653V91.4126C26.3117 89.7314 23.8485 88.044 21.6159 86.4612L20.8404 85.7997ZM20.8404 19.9756V8.09876H11.7548V29.0777L20.8404 19.9756Z" fill="#FF0000"/>
<path fill-rule="evenodd" clip-rule="evenodd" d="M44.5071 9.7697H57.1599L61.1537 0H35.4685V42.3982L38.0827 45.2425L35.4685 48.0888V95.4548C38.9831 97.5318 42.625 99.3839 46.3723 101C50.1188 99.3842 53.76 97.5328 57.2741 95.4568V89.0085H44.5071V49.9993H49.911L53.5844 40.1457H44.5071V9.7697Z" fill="#FF0000"/>
<path d="M57.2764 84.9417H49.7439V95.4568H57.2764V84.9417Z" fill="#FF0000"/>
<path d="M57.3804 0H49.8479V13.0481H57.3804V0Z" fill="#FF0000"/>
</svg>
