<svg width="26" height="30" viewBox="0 0 26 30" fill="none" xmlns="http://www.w3.org/2000/svg">
<path d="M12.7849 29.4963C19.6283 29.4963 25.1963 23.9282 25.1963 17.0849C25.1963 11.8876 21.9818 7.43347 17.4392 5.58728V9.03609C18.8524 9.85202 20.0263 11.0251 20.8432 12.4378C21.6601 13.8504 22.0912 15.453 22.0935 17.0849C22.0935 22.2185 17.9186 26.3934 12.7849 26.3934C7.65126 26.3934 3.47638 22.2185 3.47638 17.0849C3.47844 15.453 3.90954 13.8504 4.72644 12.4377C5.54334 11.025 6.71733 9.8519 8.13065 9.03609V5.58728C3.58808 7.43347 0.373535 11.8876 0.373535 17.0849C0.373535 23.9282 5.94159 29.4963 12.7849 29.4963Z" fill="#CF0000"/>
<path d="M11.2334 0.0192261H14.3362V15.5335H11.2334V0.0192261Z" fill="#CF0000"/>
</svg>
