<svg width="81" height="81" viewBox="0 0 81 81" fill="none" xmlns="http://www.w3.org/2000/svg">
<g clip-path="url(#clip0_525_130)">
<path d="M80.997 81.0037H76.7713C72.4778 81.0037 68.1842 81.0037 63.8907 81.0037C60.1278 81.0037 56.3696 80.984 52.6085 80.983C48.6292 80.983 44.649 80.999 40.6687 81C35.4383 81 30.3743 80.094 25.5229 78.1305C18.1256 75.1387 12.1049 70.3933 7.46084 63.8941C3.91709 58.9314 1.66215 53.438 0.602888 47.4572C-0.16001 43.1275 -0.199746 38.7011 0.485297 34.3583C1.17783 29.8276 2.63776 25.4481 4.80232 21.4081C7.74964 15.894 11.7638 11.3273 16.8174 7.65718C20.0679 5.29516 23.6569 3.43833 27.4627 2.14968C32.4025 0.466868 37.622 -0.240857 42.8315 0.0657826C48.5201 0.365264 54.0775 1.88621 59.1259 4.52523C64.2439 7.19307 68.7373 10.917 72.3091 15.4508C75.8808 19.9846 78.4496 25.225 79.8456 30.8256C80.5775 33.6851 80.9566 36.6235 80.9745 39.5751C80.998 46.8768 80.9848 54.1793 80.9876 61.481C80.9876 67.3729 80.9923 73.2649 81.0017 79.1569L80.997 81.0037ZM65.3197 19.1689C64.9829 19.2706 64.8098 19.3082 64.648 19.374C63.2304 19.9555 61.8211 20.5576 60.3959 21.1211C59.2304 21.5831 58.0949 21.7392 57.2078 20.5566C57.1432 20.4877 57.0698 20.4276 56.9895 20.3779C54.897 18.7572 52.2979 17.9305 49.6537 18.0443C47.0094 18.1581 44.4911 19.2052 42.5455 20.9998C39.7082 23.5898 38.5643 26.9316 38.9942 30.7767C39.0281 31.0787 39.0573 31.3825 39.0986 31.7871C36.7882 31.9019 34.6574 31.4014 32.5474 30.8707C30.3862 30.3247 28.2958 29.5297 26.3178 28.5018C24.3649 27.4895 22.4655 26.3737 20.8023 24.9314C19.1391 23.4891 17.5596 21.9208 15.8964 20.3694C15.776 20.5463 15.5972 20.7279 15.5135 20.9461C15.2313 21.6753 14.9491 22.4072 14.7346 23.158C14.3959 24.3481 14.3733 25.5759 14.4956 26.797C14.5757 27.5121 14.7087 28.2203 14.8936 28.9157C15.5267 31.3957 17.0836 33.2783 19.1391 35.0442C18.109 35.1383 17.363 34.9275 16.6339 34.7149C15.9049 34.5023 15.2021 34.204 14.3639 33.8983C14.3592 35.582 14.7327 37.2452 15.4571 38.7651C16.1767 40.308 17.2445 41.5574 18.5267 42.6394C19.7628 43.6855 21.2548 44.2886 22.7459 44.9387C21.3489 45.5032 19.9237 45.3056 18.4035 45.2859C18.7633 46.525 19.3683 47.6792 20.1824 48.6803C22.2953 51.3146 25.1052 52.6392 28.6085 52.9685C28.2868 53.2884 28.1429 53.4916 27.95 53.613C27.0488 54.1775 26.1626 54.7711 25.2172 55.2622C21.5483 57.1739 17.6273 57.9736 13.4985 57.7789C13.2736 57.7685 13.0479 57.8043 12.6913 57.8278C12.9002 58.0244 12.9735 58.1279 13.0761 58.1844C13.7064 58.5334 14.3376 58.8806 14.9773 59.2117C18.4144 60.985 22.1566 62.0906 26.0055 62.4698C31.1325 62.9919 36.1335 62.4199 40.9867 60.6239C45.5728 58.9304 49.4881 56.2472 52.7844 52.659C55.9679 49.193 58.2614 45.1927 59.7515 40.737C60.41 38.7736 60.951 36.7743 61.1193 34.6998C61.2448 33.1726 61.3388 31.6435 61.4016 30.1125C61.4288 29.4445 61.6443 28.9929 62.1805 28.5272C63.4288 27.4415 64.5784 26.2401 65.7336 25.0518C66.1563 24.6426 66.4742 24.1376 66.6603 23.5795C64.791 24.1355 63.1005 24.874 61.1993 24.8533C62.9839 23.2935 64.5878 21.647 65.3197 19.1689Z" fill="white"/>
</g>
<defs>
<clipPath id="clip0_525_130">
<rect width="81" height="81" fill="white"/>
</clipPath>
</defs>
</svg>
